<svg version="1.2" xmlns="http://www.w3.org/2000/svg" viewBox="0 0 1200 400" width="1200" height="400">
	<title>Logo</title>
	<style>
		.s0 { fill: #082052 } 
		.s1 { fill: #c5c5c6 } 
		.s2 { fill: #1a68ff } 
		.s3 { fill: #1f8229 } 
		.s4 { fill: #177b25 } 
		.s5 { fill: #082152 } 
		.s6 { fill: #fefffd } 
		.s7 { fill: #cc4526 } 
		.s8 { fill: #fdfdfd } 
		.s9 { fill: #091d4e } 
		.s10 { fill: #010133 } 
	</style>
	<g id="Layer_x0020_1">
		<g id="Untitled-1.cdr">
			<path fill-rule="evenodd" class="s0" d="m248.44 159.17l0.11 32.19-14.54-0.27c1.25 2.45 1.77 1.96 4.73 4.85l16.34 16.14c2.86-1.81 17.85-16.08 20.85-20.43 0.16-0.23 0.38-0.56 0.54-0.85l-13.67 0.3-0.21-31.59c21.13-3.43 42.21 5.5 54.43-9.79 6.21-7.77 4.75-16.38 4.72-27.2l-0.13-63.38c-0.11-27.44-10.93-30.86-33.76-30.25-10.55 0.28-21.15 0.3-31.77 0.29-10.58-0.02-21.23 0.01-31.79-0.15-40.38-0.63-35.36 10.37-35.4 60.84-0.03 33.29-8.43 68.78 26.42 69.36 10.9 0.18 22.22 0.08 33.13-0.06z"/>
			<path fill-rule="evenodd" class="s1" d="m25.82 219.84c-23.54 2.84-19.82 26.04-19.79 47.7 0.02 13.69-1.93 54.22 1.21 64.69 6.03 20.05 32.09 16.88 50.96 16.79 14.62-0.06 54.01 2.19 66-0.33 22.5-4.73 18.54-25.62 18.18-47.56-0.18-11.18 0.6-57.5-0.64-64.07-4.32-22.84-32.04-17.62-49.55-17.53-19.07 0.11-48.85-1.81-66.37 0.31z"/>
			<path fill-rule="evenodd" class="s2" d="m276.93 219.35c56.14-0.04 47.98 8.44 48.31 51.07 0.09 10.88 0.38 21.77 0.47 32.65 0.14 17.4 4.93 41.8-21.02 45.23l-66.49 0.9c-17.88 0.16-43.87 3.69-48.36-18.66-1.18-5.9-1.86-90.1 0.47-96.77 2.76-7.89 10.68-13.31 20.15-13.86 21-1.22 45.09-0.54 66.47-0.56zm-60.27 94.54l19.79 0.42c1.47-31.14 2.7-29.05-14.2-28.32-7.34 0.32-6.34 2.7-5.81 19zm83.95-1.11l-0.09-64.86c-25.56-4.12-20.35 3.14-20.25 23.46 0.05 9.77-1.3 35.45 1.48 42.16 5.75 0.9 14.14 1.03 18.86-0.76zm-32.9 0.74c1.37-1.04 1.97-0.52 2.03-6.55 0.09-8.65 0.4-34.7-0.99-39.21-2.88-1.18-12.52-1.77-16.54-0.99-5.61 1.08-3.73 7.5-3.65 13.25 0.1 6.52-1.16 29.39 1.56 33.53 3.57 1.59 14.51 1.96 17.59-0.03zm-53.36 12.72l86.78-0.28-0.13-5.49-86.6 0.06z"/>
			<path fill-rule="evenodd" class="s3" d="m20.39 156.53c-14.1-6.72-14.76-15.25-14.77-34.01q0.01-24 0-48.02c0-16.6-3.06-29.81 8.61-39.85 10.51-9.03 26.11-5.82 42.2-5.78 81.63 0.19 89.69-9.97 87.08 58.09l0.2 13.33c0.16 15.95 2.25 43.6-7.45 52.35-11.44 10.31-37.38 5.58-55.62 6.7l-13.42-0.58c-8.8 1.5-39.58 1.23-46.83-2.23zm11.55-23.69l38.16-0.03 0.06-20.21-38.26 0.07zm46.96-26.83l38.07-0.03-0.07-19.79-38.05 0.02zm-46.96-0.12l38.19 0.1v-19.78l-38.23 0.01zm47.01-26.81l37.99-0.07-0.06-21.28-38.14 0.05zm-46.97-0.19l38.05 0.12 0.08-21.17-38.24 0.01zm46.99 53.96l37.93 0.03v-20.26l-38.03-0.13z"/>
			<path fill-rule="evenodd" class="s0" d="m860.95 110.97c27.8-0.84 70.38-3.25 90.27 9.68 22 14.3 19.24 52.49-7 60.25l4.65 2.54c31.72 15.37 22.07 52.19 6.95 63.44-23.25 17.3-59.89 9.78-95.01 11.39zm28.93 61.3c20.47-0.2 47.23 3.16 47.23-19.01 0-21.97-27.27-18.62-47.29-19.1zm50.93 42.46c0.7-24.33-29.46-18.95-50.95-19.15l-0.03 38.49c16.85-0.42 50.28 5.16 50.98-19.34z"/>
			<path fill-rule="evenodd" class="s4" d="m427.8 185.91c-8.38 13.04-48.76 65.48-52.11 71.62 12.77 0.93 25.5 0.53 38.45 0.52 4.99-8.08 11.11-16.44 16.5-24.4 3.12-4.61 14.24-22.2 17.22-24.61l24.46 36.69c2.6 3.85 6.32 8.01 8.11 12.3l40.04 0.07-39.87-53.98c-3.5-4.74-11.27-13.92-13.04-18.21 9.36-11.63 17.64-25.06 26.63-36.8 4.82-6.31 8.75-12.49 13.48-18.66l13.17-18.09-37.31-0.56c-2.44 0.58-16.17 21.7-18.22 24.83l-12.97 19.14c-0.5 0.77-1.65 2.58-1.9 2.94l-2.92 3.32c-1.79-4.94-13.14-20.02-16.94-25.71l-13-19.09c-4.88-7.91-2.96-5.41-31.39-5.43l-11.09-0.03 26.57 37.02c4.55 6.22 8.3 11.96 12.9 18.31 4.18 5.76 10.18 12.97 13.23 18.81z"/>
			<path fill-rule="evenodd" class="s0" d="m708.92 256.98c-23.19 8.94-58.1 1.36-71.03-25.48-6.15-12.76-7.44-27.79-3.35-42.6 11.41-41.21 67.96-52.71 94.59-16.65 8.24 11.15 9.87 24.83 9.81 41.12l-78.06-0.02c-1.37 27.91 42.06 33.5 48 12.76 4.62 0.54 9.13 1.44 13.8 2.24 3.68 0.63 9.89 1.14 12.52 2.69-4.7 11.85-14.65 21.45-26.28 25.94zm1.8-62.93c-0.38-11.92-11.2-21.47-24.56-21.55-13.05-0.08-24.49 10.04-24.85 21.71z"/>
			<path fill-rule="evenodd" class="s0" d="m1036.61 175.88l54.82-0.12c-2.91 4.84-25.88 28.3-32.11 35.82l-16.12 18.05c-9.07 9.53-6.45 5.5-6.51 28.39l91.13-0.01-0.12-21.66-57.07-0.48 55.65-60.01v-22.66l-89.14 0.23z"/>
			<path fill-rule="evenodd" class="s0" d="m558.42 225.2l-24.07 7.78c6.89 20.8 25.24 28.29 47.55 27.19 22.49-1.11 40.27-14.43 37.97-37.8-2.51-25.5-23.6-22.71-46.28-29.54-11.74-3.53-14.95-14.76-4.1-19.83 11.42-5.34 21.95 1.37 24.1 11.16l25.41-3.92c-9.05-46.29-90.09-35.82-81.45 10.03 4.67 24.76 31.24 23.44 46.57 29.06 12.25 4.48 10.42 17.8-2.72 19.78-12.94 1.95-20.31-4.73-22.98-13.91z"/>
			<path fill-rule="evenodd" class="s0" d="m756.63 258.3l28.14 0.03-0.11-147.47-28.18 0.05z"/>
			<path fill-rule="evenodd" class="s5" d="m811.16 257.06l24.61-0.32-0.45-144.35-24.63-0.18z"/>
			<path fill-rule="evenodd" class="s0" d="m987.93 258.08l27.7-0.08-0.24-104.1-26.97-0.43z"/>
			<path fill-rule="evenodd" class="s6" d="m887.83 234.07c16.85-0.42 50.28 5.16 50.98-19.34 0.7-24.33-29.46-18.95-50.95-19.15z"/>
			<path fill-rule="evenodd" class="s6" d="m888.88 172.27c20.47-0.2 47.23 3.16 47.23-19.01 0-21.97-27.27-18.62-47.29-19.1z"/>
			<path fill-rule="evenodd" class="s6" d="m281.75 313.54c5.75 0.9 14.14 1.03 18.86-0.76l-0.09-64.86c-25.56-4.12-20.35 3.14-20.25 23.46 0.05 9.77-1.3 35.45 1.48 42.16z"/>
			<path fill-rule="evenodd" class="s6" d="m250.12 313.55c3.57 1.59 14.51 1.96 17.59-0.03 1.37-1.04 1.97-0.52 2.03-6.55 0.09-8.65 0.4-34.7-0.99-39.21-2.88-1.18-12.52-1.77-16.54-0.99-5.61 1.08-3.73 7.5-3.65 13.25 0.1 6.52-1.16 29.39 1.56 33.53z"/>
			<path fill-rule="evenodd" class="s7" d="m996.77 110.42c-22.2 6.7-12.85 37.69 9.76 31.99 21.25-5.35 12.39-38.68-9.76-31.99z"/>
			<path fill-rule="evenodd" class="s0" d="m80.64 159.34l-13.42-0.58 0.01 31.78-14.77 0.05c6.02 7.19 15.61 14.44 20.72 21.37l21.61-21.06-14.03-0.41z"/>
			<path fill-rule="evenodd" class="s8" d="m660.31 194.21l49.41-0.16c-0.38-11.92-11.2-21.47-24.56-21.55-13.05-0.08-24.49 10.04-24.85 21.71z"/>
			<path fill-rule="evenodd" class="s6" d="m78.95 79.08l37.99-0.07-0.06-21.28-38.14 0.05z"/>
			<path fill-rule="evenodd" class="s6" d="m31.98 78.89l38.05 0.12 0.08-21.17-38.24 0.01z"/>
			<path fill-rule="evenodd" class="s6" d="m31.94 132.84l38.16-0.03 0.06-20.21-38.26 0.07z"/>
			<path fill-rule="evenodd" class="s6" d="m78.97 132.85l37.93 0.03v-20.26l-38.03-0.13z"/>
			<path fill-rule="evenodd" class="s6" d="m31.94 105.89l38.19 0.1v-19.78l-38.23 0.01z"/>
			<path fill-rule="evenodd" class="s6" d="m78.9 106.01l38.07-0.03-0.07-19.79-38.05 0.02z"/>
			<path fill-rule="evenodd" class="s9" d="m143.51 86.96l0.2 13.33 19.24 0.09-0.32 12.96c5.19-2.75 19.38-16.38 22.04-20.59-3.5-3.99-6.92-7.03-10.61-10.99-1.86-1.99-3.19-3.68-5.25-5.49l-5.56-5.09-0.25 15.73z"/>
			<path fill-rule="evenodd" class="s0" d="m163.53 277.88l-20.7 0.15 0.26 13.06 20.48-0.05 0.34 13.52c2.8-3.69 17.43-15.06 21.19-21.27-8.28-4.62-12.66-14.86-21.56-18.86z"/>
			<path fill-rule="evenodd" class="s6" d="m216.44 304.99l0.22 8.9 19.79 0.42c1.47-31.14 2.7-29.05-14.2-28.32-7.34 0.32-6.34 2.7-5.81 19z"/>
			<path fill-rule="evenodd" class="s10" d="m809.41 111.03l27.56 0.01 0.21 146.99h-27.66zm1.75 146.03l24.61-0.32-0.45-144.35-24.63-0.18z"/>
			<path fill-rule="evenodd" class="s8" d="m214.35 326.24l86.78-0.28-0.13-5.49-86.6 0.06z"/>
		</g>
	</g>
</svg>